<svg id="Layer_1" data-name="Layer 1" xmlns="http://www.w3.org/2000/svg" viewBox="0 0 100 125"><defs><style>.cls-1{fill:#fff;}</style></defs><title>noun_mind_white</title><path class="cls-1" d="M10.45,67.45a6.85,6.85,0,0,0,1.07.48l.63.2,3.39,1.08.12,8.91v3.22a3.82,3.82,0,0,0,.06.83,9,9,0,0,0,.36,1.62A8.65,8.65,0,0,0,23,89.63a8.88,8.88,0,0,0,1.46.08h1.14l4.44-.09,7-.18,2.39,7.44a1.43,1.43,0,0,0,1.75,1l.06,0a1.45,1.45,0,0,0,.83-1.74l-2.21-8.85A1.59,1.59,0,0,0,38.42,86h-.1l-8.19-.21-4.44-.09H24.1a1.83,1.83,0,0,1-.4,0,4.4,4.4,0,0,1-3.46-3.1,5.64,5.64,0,0,1-.15-.82V78.16l.14-10.64a2.32,2.32,0,0,0-1.57-2.22h-.05l-4.95-1.7L13,63.39l-.13-.07a.64.64,0,0,1-.2-.2.66.66,0,0,1-.08-.55L17,52.82l1.17-2.57.59-1.31c.22-.5.42-1,.6-1.52A20.07,20.07,0,0,0,20.53,41a36.16,36.16,0,0,1,1.79-10.62A33.26,33.26,0,0,1,45.52,8.69a32.17,32.17,0,0,1,10.88-1,34.14,34.14,0,0,1,10.48,2.49,33,33,0,0,1,9,5.58,34.24,34.24,0,0,1,6.72,7.78,36.38,36.38,0,0,1,4,9.07,34.24,34.24,0,0,1,.87,4.71A28.17,28.17,0,0,1,87.69,42a34.22,34.22,0,0,1-1.31,8.82,34.91,34.91,0,0,1-7.71,13.8l-.06.06a1.74,1.74,0,0,0-.38,1.68c2.64,8.73,4.22,13.7,5.59,17.87a1.39,1.39,0,0,0,1.68,1l.09,0h0a1.43,1.43,0,0,0,.8-1.69c-1-4.11-2.22-8.94-4.42-17.13a37.4,37.4,0,0,0,10.31-24.3,32.47,32.47,0,0,0-.16-5.31,39.6,39.6,0,0,0-.88-5.41,40.7,40.7,0,0,0-4.34-10.5,39,39,0,0,0-7.6-9.08A37.85,37.85,0,0,0,69,5.24a39.09,39.09,0,0,0-12.17-3A37.2,37.2,0,0,0,44.14,3.39,38.37,38.37,0,0,0,17.21,28.62a40.94,40.94,0,0,0-2,12.32,15.25,15.25,0,0,1-.77,4.79c-.13.38-.27.76-.43,1.13l-.56,1.28-1.13,2.58-2.23,5.11L9,58.36l-.54,1.25-.27.62-.07.17L8,60.68a5.55,5.55,0,0,0,2.45,6.77Z"/><path class="cls-1" d="M52.77,59.24a.42.42,0,0,0,.09.14,1.43,1.43,0,0,0,1,.43h0a1.41,1.41,0,0,0,1-.43.42.42,0,0,0,.09-.14l3-6.85a.46.46,0,0,0,.05-.2V22.36a2.29,2.29,0,0,0-2.44-2.08h-3.5a2.28,2.28,0,0,0-2.44,2.08V52.19a.45.45,0,0,0,0,.2ZM57.1,51.5H54.39V27.05H57.1ZM55.36,56H52.43l-1.56-3.54h6.05Zm-2-4.53H50.69V27.05H53.4Zm.23,7.25L52.87,57h2.05l-.76,1.73A.55.55,0,0,1,53.63,58.75ZM52.15,21.26h3.5a1.32,1.32,0,0,1,1.45,1.1v3.7H50.69v-3.7C50.69,21.76,51.35,21.26,52.15,21.26Z"/><path class="cls-1" d="M36.71,55.47l-.2,3.82a.51.51,0,0,0,.2.43.52.52,0,0,0,.29.09l.18,0,3.58-1.37,3.58,1.37a.52.52,0,0,0,.47-.06.48.48,0,0,0,.2-.43l-.2-3.82,2.42-3a.48.48,0,0,0,.08-.46.51.51,0,0,0-.34-.33l-3.71-1-2.08-3.21a.52.52,0,0,0-.83,0l-2.09,3.21-3.71,1a.51.51,0,0,0-.34.33.48.48,0,0,0,.09.46Zm2-3.84a.45.45,0,0,0,.28-.21l1.78-2.72,1.78,2.72a.47.47,0,0,0,.29.21l3.15.84-2,2.53a.45.45,0,0,0-.11.34L44,58.58l-3.05-1.16a.42.42,0,0,0-.36,0l-3,1.16.17-3.24A.55.55,0,0,0,37.6,55l-2.06-2.53Z"/><path class="cls-1" d="M66.15,26.08,66,28.62a.51.51,0,0,0,.2.43.5.5,0,0,0,.47.06l2.39-.91,2.39.91a.57.57,0,0,0,.18,0,.52.52,0,0,0,.29-.09.51.51,0,0,0,.2-.43L72,26.08l1.61-2a.53.53,0,0,0,.09-.47.51.51,0,0,0-.35-.32l-2.47-.66-1.39-2.14a.52.52,0,0,0-.83,0l-1.4,2.14-2.47.66a.48.48,0,0,0-.34.32.5.5,0,0,0,.09.47Zm1.55-2.52a.56.56,0,0,0,.29-.21l1.08-1.66,1.09,1.66a.5.5,0,0,0,.28.21l1.92.51L71.11,25.6a.48.48,0,0,0-.11.34l.11,2-1.86-.71a.58.58,0,0,0-.18,0,.47.47,0,0,0-.17,0L67,27.92l.1-2A.48.48,0,0,0,67,25.6l-1.25-1.53Z"/><path class="cls-1" d="M36.12,32.45,36,35.34a.46.46,0,0,0,.21.42.48.48,0,0,0,.46.07l2.72-1,2.71,1a.57.57,0,0,0,.18,0,.46.46,0,0,0,.29-.1.48.48,0,0,0,.2-.42l-.15-2.89,1.83-2.25a.53.53,0,0,0,.09-.47.49.49,0,0,0-.35-.32l-2.81-.75-1.58-2.43a.52.52,0,0,0-.83,0l-1.58,2.43-2.81.75a.48.48,0,0,0-.34.32.5.5,0,0,0,.09.47Zm1.68-2.89a.45.45,0,0,0,.28-.2l1.28-2,1.27,2a.5.5,0,0,0,.29.2l2.25.61L41.7,32a.6.6,0,0,0-.11.34l.13,2.32-2.19-.83a.47.47,0,0,0-.17,0,.58.58,0,0,0-.18,0L37,34.63l.12-2.32A.48.48,0,0,0,37,32l-1.47-1.8Z"/><path class="cls-1" d="M73.7,44.49a.55.55,0,0,0-.35-.33l-3.57-.95-2-3.08a.51.51,0,0,0-.82,0l-2,3.08-3.56.95a.55.55,0,0,0-.35.33.51.51,0,0,0,.09.46l2.32,2.86-.19,3.67a.51.51,0,0,0,.2.43.53.53,0,0,0,.3.09l.17,0,3.45-1.32L70.81,52a.5.5,0,0,0,.47-.06.51.51,0,0,0,.2-.43l-.2-3.67L73.61,45A.51.51,0,0,0,73.7,44.49Zm-3.3,2.84a.48.48,0,0,0-.11.34l.16,3.11-2.91-1.12-.18,0-.18,0-2.91,1.12.16-3.11a.48.48,0,0,0-.11-.34l-2-2.41,3-.8a.51.51,0,0,0,.29-.21l1.7-2.61,1.7,2.61a.51.51,0,0,0,.29.21l3,.8Z"/><path class="cls-1" d="M44,38.45a3.34,3.34,0,1,0,3.33,3.33A3.34,3.34,0,0,0,44,38.45Zm0,5.68a2.35,2.35,0,1,1,2.34-2.35A2.35,2.35,0,0,1,44,44.13Z"/><path class="cls-1" d="M64.17,38.07a3.34,3.34,0,1,0-3.34-3.34A3.34,3.34,0,0,0,64.17,38.07Zm0-5.68a2.35,2.35,0,1,1-2.35,2.34A2.34,2.34,0,0,1,64.17,32.39Z"/><path class="cls-1" d="M69.31,59.82a.49.49,0,0,0,.5-.49V57.64h1.7a.5.5,0,0,0,.5-.49.51.51,0,0,0-.5-.5h-1.7V55a.5.5,0,0,0-1,0v1.68h-1.7a.5.5,0,0,0-.5.5.49.49,0,0,0,.5.49h1.7v1.69A.49.49,0,0,0,69.31,59.82Z"/><path class="cls-1" d="M41.84,23.45h1.7v1.69a.5.5,0,0,0,1,0V23.45h1.7a.49.49,0,0,0,.5-.49.5.5,0,0,0-.5-.5h-1.7V20.78a.5.5,0,0,0-1,0v1.68h-1.7a.51.51,0,0,0-.5.5A.5.5,0,0,0,41.84,23.45Z"/></svg>