<svg id="Layer_1" data-name="Layer 1" xmlns="http://www.w3.org/2000/svg" viewBox="0 0 100 125"><defs><style>.cls-1{fill:#fff;fill-rule:evenodd;}</style></defs><title>noun_mind_white</title><path class="cls-1" d="M33.22,17.09a29.57,29.57,0,0,0-9.55,22.15,34.74,34.74,0,0,0,.3,4.6,1,1,0,0,1,0,.55l-7.7,16.75,6.4,3.6a.83.83,0,0,1,.5.8l1.25,14,17.7,1a.83.83,0,0,1,.9.75L45.82,94h39l-9.15-28.5a1.19,1.19,0,0,1,.4-1.15q2-1.5,3.9-3.15a29.15,29.15,0,0,0,9.7-22A29.44,29.44,0,0,0,80,17.09,32.81,32.81,0,0,0,56.62,8,33.25,33.25,0,0,0,33.22,17.09ZM51.4,23.87A1.55,1.55,0,0,0,50,25l-.76,4.15c-.37.14-.72.29-1.08.46l-3.5-2.41a1.45,1.45,0,0,0-1.78.18l-5.27,5.27a1.43,1.43,0,0,0-.16,1.78l2.4,3.47c-.16.36-.3.72-.44,1.08l-4.15.76a1.45,1.45,0,0,0-1.15,1.39V48.6A1.45,1.45,0,0,0,35.29,50l4.15.75c.14.37.29.73.46,1.08l-2.42,3.47a1.43,1.43,0,0,0,.16,1.78l5.27,5.28a1.45,1.45,0,0,0,1.8.18l3.48-2.41c.36.16.71.32,1.08.45L50,64.72a1.44,1.44,0,0,0,1.37,1.15h7.47a1.43,1.43,0,0,0,1.37-1.15L61,60.56c.37-.14.72-.29,1.08-.45l3.47,2.41a1.44,1.44,0,0,0,1.79-.18l5.28-5.28a1.43,1.43,0,0,0,.16-1.78l-2.4-3.47c.15-.34.3-.7.43-1.06L75,50a1.47,1.47,0,0,0,1.16-1.38V41.14A1.46,1.46,0,0,0,75,39.75L70.83,39c-.14-.36-.3-.71-.45-1.06l2.4-3.49a1.43,1.43,0,0,0-.16-1.78l-5.28-5.27a1.42,1.42,0,0,0-1.79-.16l-3.47,2.39c-.36-.17-.71-.32-1.08-.46L60.24,25a1.45,1.45,0,0,0-1.37-1.14Zm3.74,11.2a9.8,9.8,0,1,0,9.8,9.8A9.82,9.82,0,0,0,55.14,35.07Z"/></svg>