<svg id="Layer_1" data-name="Layer 1" xmlns="http://www.w3.org/2000/svg" viewBox="0 0 100 125"><defs><style>.cls-1{fill:#fff;fill-rule:evenodd;}</style></defs><title>noun_mind_white</title><path class="cls-1" d="M33.22,17.09a29.57,29.57,0,0,0-9.55,22.15,34.74,34.74,0,0,0,.3,4.6,1,1,0,0,1,0,.55l-7.7,16.75,6.4,3.6a.83.83,0,0,1,.5.8l1.25,14,17.7,1a.83.83,0,0,1,.9.75L45.82,94h39l-9.15-28.5a1.19,1.19,0,0,1,.4-1.15q2-1.5,3.9-3.15a29.15,29.15,0,0,0,9.7-22A29.44,29.44,0,0,0,80,17.09,32.81,32.81,0,0,0,56.62,8,33.25,33.25,0,0,0,33.22,17.09ZM77.9,34.56l-8.59-6.87v3.43H65.87c-4,0-7.15,2.65-8.93,4.88l3.88,4.85c1-1.24,3-2.85,5.05-2.85h3.44v3.43ZM53,50.06l-3.78-4.81c-1.24,1.44-3.27,3.06-5.64,3.06H38.38c-1.72,0-1.72,0-1.72,1.72v3.43c0,1.72,0,1.72,1.72,1.72h5.15C47.59,55.18,50.82,52.53,53,50.06Zm25,1.68-8.59-6.87v3.44H65.87c-6.87,0-12-17.19-22.34-17.19H38.38c-1.72,0-1.72,0-1.72,1.72v3.44c0,1.72,0,1.72,1.72,1.72h5.15c7.73,0,12,17.18,22.34,17.18h3.44v3.44Z"/></svg>