<svg id="Layer_1" data-name="Layer 1" xmlns="http://www.w3.org/2000/svg" viewBox="0 0 100 125"><defs><style>.cls-1{fill:#fff;}</style></defs><title>noun_mind_white</title><path class="cls-1" d="M10.45,67.45a6.85,6.85,0,0,0,1.07.48l.63.2,3.39,1.08.12,8.91v3.22a3.82,3.82,0,0,0,.06.83,9,9,0,0,0,.36,1.62A8.65,8.65,0,0,0,23,89.63a8.88,8.88,0,0,0,1.46.08h1.14l4.44-.09,7-.18,2.39,7.44a1.43,1.43,0,0,0,1.75,1l.06,0a1.45,1.45,0,0,0,.83-1.74l-2.21-8.85A1.59,1.59,0,0,0,38.42,86h-.1l-8.19-.21-4.44-.09H24.1a1.83,1.83,0,0,1-.4,0,4.4,4.4,0,0,1-3.46-3.1,5.64,5.64,0,0,1-.15-.82V78.16l.14-10.64a2.32,2.32,0,0,0-1.57-2.22h-.05l-4.95-1.7L13,63.39l-.13-.07a.64.64,0,0,1-.2-.2.66.66,0,0,1-.08-.55L17,52.82l1.17-2.57.59-1.31c.22-.5.42-1,.6-1.52A20.07,20.07,0,0,0,20.53,41a36.16,36.16,0,0,1,1.79-10.62A33.26,33.26,0,0,1,45.52,8.69a32.17,32.17,0,0,1,10.88-1,34.14,34.14,0,0,1,10.48,2.49,33,33,0,0,1,9,5.58,34.24,34.24,0,0,1,6.72,7.78,36.38,36.38,0,0,1,4,9.07,34.24,34.24,0,0,1,.87,4.71A28.17,28.17,0,0,1,87.69,42a34.22,34.22,0,0,1-1.31,8.82,34.91,34.91,0,0,1-7.71,13.8l-.06.06a1.74,1.74,0,0,0-.38,1.68c2.64,8.73,4.22,13.7,5.59,17.87a1.39,1.39,0,0,0,1.68,1l.09,0h0a1.43,1.43,0,0,0,.8-1.69c-1-4.11-2.22-8.94-4.42-17.13a37.4,37.4,0,0,0,10.31-24.3,32.47,32.47,0,0,0-.16-5.31,39.6,39.6,0,0,0-.88-5.41,40.7,40.7,0,0,0-4.34-10.5,39,39,0,0,0-7.6-9.08A37.85,37.85,0,0,0,69,5.24a39.09,39.09,0,0,0-12.17-3A37.2,37.2,0,0,0,44.14,3.39,38.37,38.37,0,0,0,17.21,28.62a40.94,40.94,0,0,0-2,12.32,15.25,15.25,0,0,1-.77,4.79c-.13.38-.27.76-.43,1.13l-.56,1.28-1.13,2.58-2.23,5.11L9,58.36l-.54,1.25-.27.62-.07.17L8,60.68a5.55,5.55,0,0,0,2.45,6.77Z"/><path class="cls-1" d="M51,20a1.54,1.54,0,0,0-1.37,1.14l-.76,4.15c-.37.14-.73.29-1.08.46l-3.5-2.41a1.46,1.46,0,0,0-1.78.17l-5.28,5.28a1.43,1.43,0,0,0-.16,1.78L39.47,34A11.11,11.11,0,0,0,39,35.12l-4.16.76a1.45,1.45,0,0,0-1.15,1.39v7.46a1.43,1.43,0,0,0,1.15,1.37l4.16.76q.21.55.45,1.08l-2.42,3.47a1.43,1.43,0,0,0,.16,1.78l5.28,5.28a1.44,1.44,0,0,0,1.79.18l3.49-2.41q.53.24,1.08.45l.76,4.16A1.43,1.43,0,0,0,51,62h7.46a1.43,1.43,0,0,0,1.37-1.15l.76-4.16q.56-.21,1.08-.45l3.47,2.41a1.45,1.45,0,0,0,1.8-.18l5.28-5.28a1.46,1.46,0,0,0,.16-1.78L70,47.94c.16-.34.3-.7.44-1.06l4.17-.78a1.43,1.43,0,0,0,1.15-1.37V37.27a1.45,1.45,0,0,0-1.15-1.39l-4.16-.76c-.13-.36-.29-.71-.45-1.06l2.41-3.49a1.46,1.46,0,0,0-.16-1.78l-5.28-5.28a1.46,1.46,0,0,0-1.8-.16l-3.47,2.4c-.35-.17-.71-.32-1.08-.46l-.76-4.15A1.44,1.44,0,0,0,58.45,20Zm1.16,2.8h5.14L58,26.55a1.45,1.45,0,0,0,1,1.08,13.73,13.73,0,0,1,2.27.94,1.45,1.45,0,0,0,1.45-.08l3.13-2.18L69.41,30,67.23,33.1a1.43,1.43,0,0,0-.09,1.44,12.35,12.35,0,0,1,.92,2.25,1.45,1.45,0,0,0,1.1,1l3.76.68v5.14l-3.76.68a1.45,1.45,0,0,0-1.1,1,13,13,0,0,1-.93,2.25,1.43,1.43,0,0,0,.09,1.44L69.41,52l-3.64,3.63-3.13-2.16a1.45,1.45,0,0,0-1.45-.1,13.76,13.76,0,0,1-2.27,1,1.41,1.41,0,0,0-1,1.08l-.68,3.76H52.15l-.68-3.76a1.41,1.41,0,0,0-.95-1.08,14.83,14.83,0,0,1-2.29-.93,1.43,1.43,0,0,0-1.44.08l-3.14,2.16L40,52.05l2.19-3.13a1.44,1.44,0,0,0,.09-1.46,13.88,13.88,0,0,1-1-2.26,1.42,1.42,0,0,0-1.09-1l-3.75-.69V38.43l3.75-.68a1.44,1.44,0,0,0,1.09-1,15,15,0,0,1,.93-2.27,1.43,1.43,0,0,0-.08-1.44L40,30l3.63-3.64,3.17,2.18a1.42,1.42,0,0,0,1.42.08,14.59,14.59,0,0,1,2.28-.94,1.45,1.45,0,0,0,.95-1.08l.68-3.75Zm2.57,8.4a9.8,9.8,0,1,0,9.8,9.8A9.82,9.82,0,0,0,54.72,31.2Zm0,2.8a7,7,0,1,1-7,7A7,7,0,0,1,54.72,34Z"/></svg>