<svg xmlns="http://www.w3.org/2000/svg" viewBox="0 0 100 125"><defs><style>.cls-1{fill:#fff;fill-rule:evenodd;}</style></defs><title>noun_mind_white</title><g id="Layer_2" data-name="Layer 2"><path class="cls-1" d="M33.22,17.09a29.57,29.57,0,0,0-9.55,22.15,34.74,34.74,0,0,0,.3,4.6,1,1,0,0,1,0,.55l-7.7,16.75,6.4,3.6a.83.83,0,0,1,.5.8l1.25,14,17.7,1a.83.83,0,0,1,.9.75L45.82,94h39l-9.15-28.5a1.19,1.19,0,0,1,.4-1.15q2-1.5,3.9-3.15a29.15,29.15,0,0,0,9.7-22A29.44,29.44,0,0,0,80,17.09,32.81,32.81,0,0,0,56.62,8,33.25,33.25,0,0,0,33.22,17.09ZM57,27.57a25.92,25.92,0,0,0-5.2,7.51l8.39,8.4A25.73,25.73,0,0,0,75.26,20,25.78,25.78,0,0,0,57,27.57ZM63.47,35a2.27,2.27,0,1,1,0-3.22A2.26,2.26,0,0,1,63.47,35Zm2.15-5.36a2.27,2.27,0,1,1,3.21,0A2.26,2.26,0,0,1,65.62,29.64ZM69,40.15a28.1,28.1,0,0,1-7.89,5.39l-.95.44v8.21l7.49-7.5A6.07,6.07,0,0,0,69,40.15ZM48.57,27.59l-7.5,7.49h8.21l.44-.94a27.82,27.82,0,0,1,5.39-7.89A6.07,6.07,0,0,0,48.57,27.59ZM56,47.85l2-3.35-7.23-7.23-3.35,2Zm-3.93.36-5-5a19.89,19.89,0,0,0-8.14,13.14A19.91,19.91,0,0,0,52.05,48.21Z"/></g></svg>